<mxfile host="app.diagrams.net" modified="2023-07-04T10:36:21.602Z" agent="Mozilla/5.0 (Windows NT 10.0; Win64; x64) AppleWebKit/537.36 (KHTML, like Gecko) Chrome/114.0.0.0 Safari/537.36" etag="8f3biF6a-ZNDq9eOydCE" version="21.2.9" type="github">
  <diagram name="第 1 页" id="VoA-i-_FNSslwiwyspQ-">
    <mxGraphModel dx="1510" dy="1532" grid="1" gridSize="10" guides="1" tooltips="1" connect="1" arrows="1" fold="1" page="1" pageScale="1" pageWidth="827" pageHeight="1169" math="1" shadow="0">
      <root>
        <mxCell id="0" />
        <mxCell id="1" parent="0" />
        <mxCell id="ze9bJApV2294Vo6RGE4Z-452" value="" style="group" vertex="1" connectable="0" parent="1">
          <mxGeometry x="-318.58" y="-690.0045425867509" width="117.15997613365155" height="174.37602523659302" as="geometry" />
        </mxCell>
        <mxCell id="ze9bJApV2294Vo6RGE4Z-16" value="" style="ellipse;whiteSpace=wrap;html=1;fillColor=none;opacity=80;container=0;strokeColor=#CCCCCC;strokeWidth=2;" vertex="1" parent="ze9bJApV2294Vo6RGE4Z-452">
          <mxGeometry x="38.579999999999984" width="4.289976133651549" height="4.376025236593056" as="geometry" />
        </mxCell>
        <mxCell id="ze9bJApV2294Vo6RGE4Z-90" value="" style="ellipse;whiteSpace=wrap;html=1;fillColor=none;opacity=80;container=0;strokeColor=#CCCCCC;strokeWidth=2;" vertex="1" parent="ze9bJApV2294Vo6RGE4Z-452">
          <mxGeometry x="38.579999999999984" y="20" width="4.289976133651549" height="4.376025236593056" as="geometry" />
        </mxCell>
        <mxCell id="ze9bJApV2294Vo6RGE4Z-91" value="" style="ellipse;whiteSpace=wrap;html=1;fillColor=none;opacity=80;container=0;strokeColor=#CCCCCC;strokeWidth=2;" vertex="1" parent="ze9bJApV2294Vo6RGE4Z-452">
          <mxGeometry x="17.159999999999968" y="14.379999999999995" width="4.289976133651549" height="4.376025236593056" as="geometry" />
        </mxCell>
        <mxCell id="ze9bJApV2294Vo6RGE4Z-92" value="" style="ellipse;whiteSpace=wrap;html=1;fillColor=none;opacity=80;container=0;strokeColor=#CCCCCC;strokeWidth=2;" vertex="1" parent="ze9bJApV2294Vo6RGE4Z-452">
          <mxGeometry width="4.289976133651549" height="4.376025236593056" as="geometry" />
        </mxCell>
        <mxCell id="ze9bJApV2294Vo6RGE4Z-93" value="" style="ellipse;whiteSpace=wrap;html=1;fillColor=none;opacity=80;container=0;strokeColor=#CCCCCC;strokeWidth=2;" vertex="1" parent="ze9bJApV2294Vo6RGE4Z-452">
          <mxGeometry x="68.57999999999998" y="20" width="4.289976133651549" height="4.376025236593056" as="geometry" />
        </mxCell>
        <mxCell id="ze9bJApV2294Vo6RGE4Z-94" value="" style="endArrow=none;html=1;rounded=0;entryX=0.5;entryY=1;entryDx=0;entryDy=0;exitX=0.5;exitY=0;exitDx=0;exitDy=0;strokeColor=#CCCCCC;strokeWidth=2;" edge="1" parent="ze9bJApV2294Vo6RGE4Z-452" source="ze9bJApV2294Vo6RGE4Z-90" target="ze9bJApV2294Vo6RGE4Z-16">
          <mxGeometry width="50" height="50" relative="1" as="geometry">
            <mxPoint x="-31.420000000000016" y="60.00454258675086" as="sourcePoint" />
            <mxPoint x="-1.420000000000016" y="20.00454258675086" as="targetPoint" />
          </mxGeometry>
        </mxCell>
        <mxCell id="ze9bJApV2294Vo6RGE4Z-95" value="" style="endArrow=none;html=1;rounded=0;entryX=0;entryY=0.5;entryDx=0;entryDy=0;exitX=1;exitY=0.5;exitDx=0;exitDy=0;strokeColor=#CCCCCC;strokeWidth=2;" edge="1" parent="ze9bJApV2294Vo6RGE4Z-452" source="ze9bJApV2294Vo6RGE4Z-91" target="ze9bJApV2294Vo6RGE4Z-90">
          <mxGeometry width="50" height="50" relative="1" as="geometry">
            <mxPoint x="-1.420000000000016" y="60.00454258675086" as="sourcePoint" />
            <mxPoint x="48.579999999999984" y="10.004542586750858" as="targetPoint" />
          </mxGeometry>
        </mxCell>
        <mxCell id="ze9bJApV2294Vo6RGE4Z-96" value="" style="endArrow=none;html=1;rounded=0;entryX=0;entryY=0;entryDx=0;entryDy=0;exitX=1;exitY=1;exitDx=0;exitDy=0;strokeColor=#CCCCCC;strokeWidth=2;" edge="1" parent="ze9bJApV2294Vo6RGE4Z-452" source="ze9bJApV2294Vo6RGE4Z-92" target="ze9bJApV2294Vo6RGE4Z-91">
          <mxGeometry width="50" height="50" relative="1" as="geometry">
            <mxPoint x="-21.420000000000016" y="60.00454258675086" as="sourcePoint" />
            <mxPoint x="28.579999999999984" y="10.004542586750858" as="targetPoint" />
          </mxGeometry>
        </mxCell>
        <mxCell id="ze9bJApV2294Vo6RGE4Z-97" value="" style="ellipse;whiteSpace=wrap;html=1;fillColor=none;opacity=80;container=0;strokeColor=#CCCCCC;strokeWidth=2;" vertex="1" parent="ze9bJApV2294Vo6RGE4Z-452">
          <mxGeometry x="82.86999999999998" y="40" width="4.289976133651549" height="4.376025236593056" as="geometry" />
        </mxCell>
        <mxCell id="ze9bJApV2294Vo6RGE4Z-98" value="" style="endArrow=none;html=1;rounded=0;entryX=0;entryY=0.5;entryDx=0;entryDy=0;exitX=1;exitY=0.5;exitDx=0;exitDy=0;strokeColor=#CCCCCC;strokeWidth=2;" edge="1" parent="ze9bJApV2294Vo6RGE4Z-452" source="ze9bJApV2294Vo6RGE4Z-90" target="ze9bJApV2294Vo6RGE4Z-93">
          <mxGeometry width="50" height="50" relative="1" as="geometry">
            <mxPoint x="-1.420000000000016" y="60.00454258675086" as="sourcePoint" />
            <mxPoint x="48.579999999999984" y="10.004542586750858" as="targetPoint" />
          </mxGeometry>
        </mxCell>
        <mxCell id="ze9bJApV2294Vo6RGE4Z-100" value="" style="endArrow=none;html=1;rounded=0;entryX=1;entryY=1;entryDx=0;entryDy=0;exitX=0;exitY=0;exitDx=0;exitDy=0;strokeColor=#CCCCCC;strokeWidth=2;" edge="1" parent="ze9bJApV2294Vo6RGE4Z-452" source="ze9bJApV2294Vo6RGE4Z-97" target="ze9bJApV2294Vo6RGE4Z-93">
          <mxGeometry width="50" height="50" relative="1" as="geometry">
            <mxPoint x="38.579999999999984" y="80.00454258675086" as="sourcePoint" />
            <mxPoint x="88.57999999999998" y="30.00454258675086" as="targetPoint" />
          </mxGeometry>
        </mxCell>
        <mxCell id="ze9bJApV2294Vo6RGE4Z-101" value="" style="ellipse;whiteSpace=wrap;html=1;fillColor=none;opacity=80;container=0;strokeColor=#CCCCCC;strokeWidth=2;" vertex="1" parent="ze9bJApV2294Vo6RGE4Z-452">
          <mxGeometry x="38.579999999999984" y="60" width="4.289976133651549" height="4.376025236593056" as="geometry" />
        </mxCell>
        <mxCell id="ze9bJApV2294Vo6RGE4Z-102" value="" style="endArrow=none;html=1;rounded=0;entryX=0.5;entryY=1;entryDx=0;entryDy=0;exitX=0.5;exitY=0;exitDx=0;exitDy=0;strokeColor=#CCCCCC;strokeWidth=2;" edge="1" parent="ze9bJApV2294Vo6RGE4Z-452" source="ze9bJApV2294Vo6RGE4Z-101" target="ze9bJApV2294Vo6RGE4Z-90">
          <mxGeometry width="50" height="50" relative="1" as="geometry">
            <mxPoint x="-41.420000000000016" y="50.00454258675086" as="sourcePoint" />
            <mxPoint x="8.579999999999984" y="0.004542586750858391" as="targetPoint" />
          </mxGeometry>
        </mxCell>
        <mxCell id="ze9bJApV2294Vo6RGE4Z-103" value="" style="ellipse;whiteSpace=wrap;html=1;fillColor=none;opacity=80;container=0;strokeColor=#CCCCCC;strokeWidth=2;" vertex="1" parent="ze9bJApV2294Vo6RGE4Z-452">
          <mxGeometry x="12.870000000000005" y="84.38" width="4.289976133651549" height="4.376025236593056" as="geometry" />
        </mxCell>
        <mxCell id="ze9bJApV2294Vo6RGE4Z-104" value="" style="ellipse;whiteSpace=wrap;html=1;fillColor=none;opacity=80;container=0;strokeColor=#CCCCCC;strokeWidth=2;" vertex="1" parent="ze9bJApV2294Vo6RGE4Z-452">
          <mxGeometry x="64.28999999999999" y="88.75999999999999" width="4.289976133651549" height="4.376025236593056" as="geometry" />
        </mxCell>
        <mxCell id="ze9bJApV2294Vo6RGE4Z-105" value="" style="ellipse;whiteSpace=wrap;html=1;fillColor=none;opacity=80;container=0;strokeColor=#CCCCCC;strokeWidth=2;" vertex="1" parent="ze9bJApV2294Vo6RGE4Z-452">
          <mxGeometry x="4.2900000000000205" y="120" width="4.289976133651549" height="4.376025236593056" as="geometry" />
        </mxCell>
        <mxCell id="ze9bJApV2294Vo6RGE4Z-106" value="" style="ellipse;whiteSpace=wrap;html=1;fillColor=none;opacity=80;container=0;strokeColor=#CCCCCC;strokeWidth=2;" vertex="1" parent="ze9bJApV2294Vo6RGE4Z-452">
          <mxGeometry x="82.87" y="140" width="4.289976133651549" height="4.376025236593056" as="geometry" />
        </mxCell>
        <mxCell id="ze9bJApV2294Vo6RGE4Z-107" value="" style="endArrow=none;html=1;rounded=0;entryX=0;entryY=0.5;entryDx=0;entryDy=0;exitX=1;exitY=0;exitDx=0;exitDy=0;strokeColor=#CCCCCC;strokeWidth=2;" edge="1" parent="ze9bJApV2294Vo6RGE4Z-452" source="ze9bJApV2294Vo6RGE4Z-103" target="ze9bJApV2294Vo6RGE4Z-101">
          <mxGeometry width="50" height="50" relative="1" as="geometry">
            <mxPoint x="-41.420000000000016" y="110.00454258675086" as="sourcePoint" />
            <mxPoint x="8.579999999999984" y="60.00454258675086" as="targetPoint" />
          </mxGeometry>
        </mxCell>
        <mxCell id="ze9bJApV2294Vo6RGE4Z-109" value="" style="endArrow=none;html=1;rounded=0;entryX=1;entryY=0.5;entryDx=0;entryDy=0;exitX=0;exitY=0;exitDx=0;exitDy=0;strokeColor=#CCCCCC;strokeWidth=2;" edge="1" parent="ze9bJApV2294Vo6RGE4Z-452" source="ze9bJApV2294Vo6RGE4Z-104" target="ze9bJApV2294Vo6RGE4Z-101">
          <mxGeometry width="50" height="50" relative="1" as="geometry">
            <mxPoint x="-11.420000000000016" y="110.00454258675086" as="sourcePoint" />
            <mxPoint x="38.579999999999984" y="60.00454258675086" as="targetPoint" />
          </mxGeometry>
        </mxCell>
        <mxCell id="ze9bJApV2294Vo6RGE4Z-110" value="" style="endArrow=none;html=1;rounded=0;entryX=1;entryY=1;entryDx=0;entryDy=0;exitX=0;exitY=0;exitDx=0;exitDy=0;strokeColor=#CCCCCC;strokeWidth=2;" edge="1" parent="ze9bJApV2294Vo6RGE4Z-452" source="ze9bJApV2294Vo6RGE4Z-106" target="ze9bJApV2294Vo6RGE4Z-104">
          <mxGeometry width="50" height="50" relative="1" as="geometry">
            <mxPoint x="-41.420000000000016" y="110.00454258675086" as="sourcePoint" />
            <mxPoint x="8.579999999999984" y="60.00454258675086" as="targetPoint" />
          </mxGeometry>
        </mxCell>
        <mxCell id="ze9bJApV2294Vo6RGE4Z-111" value="" style="endArrow=none;html=1;rounded=0;entryX=0;entryY=1;entryDx=0;entryDy=0;exitX=1;exitY=0;exitDx=0;exitDy=0;strokeColor=#CCCCCC;strokeWidth=2;" edge="1" parent="ze9bJApV2294Vo6RGE4Z-452" source="ze9bJApV2294Vo6RGE4Z-105" target="ze9bJApV2294Vo6RGE4Z-103">
          <mxGeometry width="50" height="50" relative="1" as="geometry">
            <mxPoint x="-31.420000000000016" y="120.00454258675086" as="sourcePoint" />
            <mxPoint x="18.579999999999984" y="70.00454258675086" as="targetPoint" />
          </mxGeometry>
        </mxCell>
        <mxCell id="ze9bJApV2294Vo6RGE4Z-389" value="" style="ellipse;whiteSpace=wrap;html=1;fillColor=none;opacity=80;container=0;strokeColor=#808080;strokeWidth=2;" vertex="1" parent="ze9bJApV2294Vo6RGE4Z-452">
          <mxGeometry x="48.579999999999984" y="10" width="4.289976133651549" height="4.376025236593056" as="geometry" />
        </mxCell>
        <mxCell id="ze9bJApV2294Vo6RGE4Z-390" value="" style="ellipse;whiteSpace=wrap;html=1;fillColor=none;opacity=80;container=0;strokeColor=#808080;strokeWidth=2;" vertex="1" parent="ze9bJApV2294Vo6RGE4Z-452">
          <mxGeometry x="48.579999999999984" y="30" width="4.289976133651549" height="4.376025236593056" as="geometry" />
        </mxCell>
        <mxCell id="ze9bJApV2294Vo6RGE4Z-391" value="" style="ellipse;whiteSpace=wrap;html=1;fillColor=none;opacity=80;container=0;strokeColor=#808080;strokeWidth=2;" vertex="1" parent="ze9bJApV2294Vo6RGE4Z-452">
          <mxGeometry x="27.159999999999968" y="24.379999999999995" width="4.289976133651549" height="4.376025236593056" as="geometry" />
        </mxCell>
        <mxCell id="ze9bJApV2294Vo6RGE4Z-392" value="" style="ellipse;whiteSpace=wrap;html=1;fillColor=none;opacity=80;container=0;strokeColor=#808080;strokeWidth=2;" vertex="1" parent="ze9bJApV2294Vo6RGE4Z-452">
          <mxGeometry x="10" y="10" width="4.289976133651549" height="4.376025236593056" as="geometry" />
        </mxCell>
        <mxCell id="ze9bJApV2294Vo6RGE4Z-393" value="" style="ellipse;whiteSpace=wrap;html=1;fillColor=none;opacity=80;container=0;strokeColor=#808080;strokeWidth=2;" vertex="1" parent="ze9bJApV2294Vo6RGE4Z-452">
          <mxGeometry x="78.57999999999998" y="30" width="4.289976133651549" height="4.376025236593056" as="geometry" />
        </mxCell>
        <mxCell id="ze9bJApV2294Vo6RGE4Z-394" value="" style="endArrow=none;html=1;rounded=0;entryX=0.5;entryY=1;entryDx=0;entryDy=0;exitX=0.5;exitY=0;exitDx=0;exitDy=0;strokeColor=#808080;strokeWidth=2;" edge="1" parent="ze9bJApV2294Vo6RGE4Z-452" source="ze9bJApV2294Vo6RGE4Z-390" target="ze9bJApV2294Vo6RGE4Z-389">
          <mxGeometry width="50" height="50" relative="1" as="geometry">
            <mxPoint x="-21.420000000000016" y="70.00454258675086" as="sourcePoint" />
            <mxPoint x="8.579999999999984" y="30.00454258675086" as="targetPoint" />
          </mxGeometry>
        </mxCell>
        <mxCell id="ze9bJApV2294Vo6RGE4Z-395" value="" style="endArrow=none;html=1;rounded=0;entryX=0;entryY=0.5;entryDx=0;entryDy=0;exitX=1;exitY=0.5;exitDx=0;exitDy=0;strokeColor=#808080;strokeWidth=2;" edge="1" parent="ze9bJApV2294Vo6RGE4Z-452" source="ze9bJApV2294Vo6RGE4Z-391" target="ze9bJApV2294Vo6RGE4Z-390">
          <mxGeometry width="50" height="50" relative="1" as="geometry">
            <mxPoint x="8.579999999999984" y="70.00454258675086" as="sourcePoint" />
            <mxPoint x="58.579999999999984" y="20.00454258675086" as="targetPoint" />
          </mxGeometry>
        </mxCell>
        <mxCell id="ze9bJApV2294Vo6RGE4Z-396" value="" style="endArrow=none;html=1;rounded=0;entryX=0;entryY=0;entryDx=0;entryDy=0;exitX=1;exitY=1;exitDx=0;exitDy=0;strokeColor=#808080;strokeWidth=2;" edge="1" parent="ze9bJApV2294Vo6RGE4Z-452" source="ze9bJApV2294Vo6RGE4Z-392" target="ze9bJApV2294Vo6RGE4Z-391">
          <mxGeometry width="50" height="50" relative="1" as="geometry">
            <mxPoint x="-11.420000000000016" y="70.00454258675086" as="sourcePoint" />
            <mxPoint x="38.579999999999984" y="20.00454258675086" as="targetPoint" />
          </mxGeometry>
        </mxCell>
        <mxCell id="ze9bJApV2294Vo6RGE4Z-397" value="" style="ellipse;whiteSpace=wrap;html=1;fillColor=none;opacity=80;container=0;strokeColor=#808080;strokeWidth=2;" vertex="1" parent="ze9bJApV2294Vo6RGE4Z-452">
          <mxGeometry x="92.86999999999998" y="50" width="4.289976133651549" height="4.376025236593056" as="geometry" />
        </mxCell>
        <mxCell id="ze9bJApV2294Vo6RGE4Z-398" value="" style="endArrow=none;html=1;rounded=0;entryX=0;entryY=0.5;entryDx=0;entryDy=0;exitX=1;exitY=0.5;exitDx=0;exitDy=0;strokeColor=#808080;strokeWidth=2;" edge="1" parent="ze9bJApV2294Vo6RGE4Z-452" source="ze9bJApV2294Vo6RGE4Z-390" target="ze9bJApV2294Vo6RGE4Z-393">
          <mxGeometry width="50" height="50" relative="1" as="geometry">
            <mxPoint x="8.579999999999984" y="70.00454258675086" as="sourcePoint" />
            <mxPoint x="58.579999999999984" y="20.00454258675086" as="targetPoint" />
          </mxGeometry>
        </mxCell>
        <mxCell id="ze9bJApV2294Vo6RGE4Z-399" value="" style="endArrow=none;html=1;rounded=0;entryX=1;entryY=1;entryDx=0;entryDy=0;exitX=0;exitY=0;exitDx=0;exitDy=0;strokeColor=#808080;strokeWidth=2;" edge="1" parent="ze9bJApV2294Vo6RGE4Z-452" source="ze9bJApV2294Vo6RGE4Z-397" target="ze9bJApV2294Vo6RGE4Z-393">
          <mxGeometry width="50" height="50" relative="1" as="geometry">
            <mxPoint x="48.579999999999984" y="90.00454258675086" as="sourcePoint" />
            <mxPoint x="98.57999999999998" y="40.00454258675086" as="targetPoint" />
          </mxGeometry>
        </mxCell>
        <mxCell id="ze9bJApV2294Vo6RGE4Z-400" value="" style="ellipse;whiteSpace=wrap;html=1;fillColor=none;opacity=80;container=0;strokeColor=#808080;strokeWidth=2;" vertex="1" parent="ze9bJApV2294Vo6RGE4Z-452">
          <mxGeometry x="48.579999999999984" y="70" width="4.289976133651549" height="4.376025236593056" as="geometry" />
        </mxCell>
        <mxCell id="ze9bJApV2294Vo6RGE4Z-401" value="" style="endArrow=none;html=1;rounded=0;entryX=0.5;entryY=1;entryDx=0;entryDy=0;exitX=0.5;exitY=0;exitDx=0;exitDy=0;strokeColor=#808080;strokeWidth=2;" edge="1" parent="ze9bJApV2294Vo6RGE4Z-452" source="ze9bJApV2294Vo6RGE4Z-400" target="ze9bJApV2294Vo6RGE4Z-390">
          <mxGeometry width="50" height="50" relative="1" as="geometry">
            <mxPoint x="-31.420000000000016" y="60.00454258675086" as="sourcePoint" />
            <mxPoint x="18.579999999999984" y="10.004542586750858" as="targetPoint" />
          </mxGeometry>
        </mxCell>
        <mxCell id="ze9bJApV2294Vo6RGE4Z-402" value="" style="ellipse;whiteSpace=wrap;html=1;fillColor=none;opacity=80;container=0;strokeColor=#808080;strokeWidth=2;" vertex="1" parent="ze9bJApV2294Vo6RGE4Z-452">
          <mxGeometry x="22.870000000000005" y="94.38" width="4.289976133651549" height="4.376025236593056" as="geometry" />
        </mxCell>
        <mxCell id="ze9bJApV2294Vo6RGE4Z-403" value="" style="ellipse;whiteSpace=wrap;html=1;fillColor=none;opacity=80;container=0;strokeColor=#808080;strokeWidth=2;" vertex="1" parent="ze9bJApV2294Vo6RGE4Z-452">
          <mxGeometry x="74.28999999999999" y="98.75999999999999" width="4.289976133651549" height="4.376025236593056" as="geometry" />
        </mxCell>
        <mxCell id="ze9bJApV2294Vo6RGE4Z-404" value="" style="ellipse;whiteSpace=wrap;html=1;fillColor=none;opacity=80;container=0;strokeColor=#808080;strokeWidth=2;" vertex="1" parent="ze9bJApV2294Vo6RGE4Z-452">
          <mxGeometry x="14.29000000000002" y="130" width="4.289976133651549" height="4.376025236593056" as="geometry" />
        </mxCell>
        <mxCell id="ze9bJApV2294Vo6RGE4Z-405" value="" style="ellipse;whiteSpace=wrap;html=1;fillColor=none;opacity=80;container=0;strokeColor=#808080;strokeWidth=2;" vertex="1" parent="ze9bJApV2294Vo6RGE4Z-452">
          <mxGeometry x="92.87" y="150" width="4.289976133651549" height="4.376025236593056" as="geometry" />
        </mxCell>
        <mxCell id="ze9bJApV2294Vo6RGE4Z-406" value="" style="endArrow=none;html=1;rounded=0;entryX=0;entryY=0.5;entryDx=0;entryDy=0;exitX=1;exitY=0;exitDx=0;exitDy=0;strokeColor=#808080;strokeWidth=2;" edge="1" parent="ze9bJApV2294Vo6RGE4Z-452" source="ze9bJApV2294Vo6RGE4Z-402" target="ze9bJApV2294Vo6RGE4Z-400">
          <mxGeometry width="50" height="50" relative="1" as="geometry">
            <mxPoint x="-31.420000000000016" y="120.00454258675086" as="sourcePoint" />
            <mxPoint x="18.579999999999984" y="70.00454258675086" as="targetPoint" />
          </mxGeometry>
        </mxCell>
        <mxCell id="ze9bJApV2294Vo6RGE4Z-407" value="" style="endArrow=none;html=1;rounded=0;entryX=1;entryY=0.5;entryDx=0;entryDy=0;exitX=0;exitY=0;exitDx=0;exitDy=0;strokeColor=#808080;strokeWidth=2;" edge="1" parent="ze9bJApV2294Vo6RGE4Z-452" source="ze9bJApV2294Vo6RGE4Z-403" target="ze9bJApV2294Vo6RGE4Z-400">
          <mxGeometry width="50" height="50" relative="1" as="geometry">
            <mxPoint x="-1.420000000000016" y="120.00454258675086" as="sourcePoint" />
            <mxPoint x="48.579999999999984" y="70.00454258675086" as="targetPoint" />
          </mxGeometry>
        </mxCell>
        <mxCell id="ze9bJApV2294Vo6RGE4Z-408" value="" style="endArrow=none;html=1;rounded=0;entryX=1;entryY=1;entryDx=0;entryDy=0;exitX=0;exitY=0;exitDx=0;exitDy=0;strokeColor=#808080;strokeWidth=2;" edge="1" parent="ze9bJApV2294Vo6RGE4Z-452" source="ze9bJApV2294Vo6RGE4Z-405" target="ze9bJApV2294Vo6RGE4Z-403">
          <mxGeometry width="50" height="50" relative="1" as="geometry">
            <mxPoint x="-31.420000000000016" y="120.00454258675086" as="sourcePoint" />
            <mxPoint x="18.579999999999984" y="70.00454258675086" as="targetPoint" />
          </mxGeometry>
        </mxCell>
        <mxCell id="ze9bJApV2294Vo6RGE4Z-409" value="" style="endArrow=none;html=1;rounded=0;entryX=0;entryY=1;entryDx=0;entryDy=0;exitX=1;exitY=0;exitDx=0;exitDy=0;strokeColor=#808080;strokeWidth=2;" edge="1" parent="ze9bJApV2294Vo6RGE4Z-452" source="ze9bJApV2294Vo6RGE4Z-404" target="ze9bJApV2294Vo6RGE4Z-402">
          <mxGeometry width="50" height="50" relative="1" as="geometry">
            <mxPoint x="-21.420000000000016" y="130.00454258675086" as="sourcePoint" />
            <mxPoint x="28.579999999999984" y="80.00454258675086" as="targetPoint" />
          </mxGeometry>
        </mxCell>
        <mxCell id="ze9bJApV2294Vo6RGE4Z-410" value="" style="ellipse;whiteSpace=wrap;html=1;fillColor=none;opacity=80;container=0;strokeColor=#4D4D4D;strokeWidth=2;" vertex="1" parent="ze9bJApV2294Vo6RGE4Z-452">
          <mxGeometry x="58.579999999999984" y="20" width="4.289976133651549" height="4.376025236593056" as="geometry" />
        </mxCell>
        <mxCell id="ze9bJApV2294Vo6RGE4Z-411" value="" style="ellipse;whiteSpace=wrap;html=1;fillColor=none;opacity=80;container=0;strokeColor=#4D4D4D;strokeWidth=2;" vertex="1" parent="ze9bJApV2294Vo6RGE4Z-452">
          <mxGeometry x="58.579999999999984" y="40" width="4.289976133651549" height="4.376025236593056" as="geometry" />
        </mxCell>
        <mxCell id="ze9bJApV2294Vo6RGE4Z-412" value="" style="ellipse;whiteSpace=wrap;html=1;fillColor=none;opacity=80;container=0;strokeColor=#4D4D4D;strokeWidth=2;" vertex="1" parent="ze9bJApV2294Vo6RGE4Z-452">
          <mxGeometry x="37.15999999999997" y="34.379999999999995" width="4.289976133651549" height="4.376025236593056" as="geometry" />
        </mxCell>
        <mxCell id="ze9bJApV2294Vo6RGE4Z-413" value="" style="ellipse;whiteSpace=wrap;html=1;fillColor=none;opacity=80;container=0;strokeColor=#4D4D4D;strokeWidth=2;" vertex="1" parent="ze9bJApV2294Vo6RGE4Z-452">
          <mxGeometry x="20" y="20" width="4.289976133651549" height="4.376025236593056" as="geometry" />
        </mxCell>
        <mxCell id="ze9bJApV2294Vo6RGE4Z-414" value="" style="ellipse;whiteSpace=wrap;html=1;fillColor=none;opacity=80;container=0;strokeColor=#4D4D4D;strokeWidth=2;" vertex="1" parent="ze9bJApV2294Vo6RGE4Z-452">
          <mxGeometry x="88.57999999999998" y="40" width="4.289976133651549" height="4.376025236593056" as="geometry" />
        </mxCell>
        <mxCell id="ze9bJApV2294Vo6RGE4Z-415" value="" style="endArrow=none;html=1;rounded=0;entryX=0.5;entryY=1;entryDx=0;entryDy=0;exitX=0.5;exitY=0;exitDx=0;exitDy=0;strokeColor=#4D4D4D;strokeWidth=2;" edge="1" parent="ze9bJApV2294Vo6RGE4Z-452" source="ze9bJApV2294Vo6RGE4Z-411" target="ze9bJApV2294Vo6RGE4Z-410">
          <mxGeometry width="50" height="50" relative="1" as="geometry">
            <mxPoint x="-11.420000000000016" y="80.00454258675086" as="sourcePoint" />
            <mxPoint x="18.579999999999984" y="40.00454258675086" as="targetPoint" />
          </mxGeometry>
        </mxCell>
        <mxCell id="ze9bJApV2294Vo6RGE4Z-416" value="" style="endArrow=none;html=1;rounded=0;entryX=0;entryY=0.5;entryDx=0;entryDy=0;exitX=1;exitY=0.5;exitDx=0;exitDy=0;strokeColor=#4D4D4D;strokeWidth=2;" edge="1" parent="ze9bJApV2294Vo6RGE4Z-452" source="ze9bJApV2294Vo6RGE4Z-412" target="ze9bJApV2294Vo6RGE4Z-411">
          <mxGeometry width="50" height="50" relative="1" as="geometry">
            <mxPoint x="18.579999999999984" y="80.00454258675086" as="sourcePoint" />
            <mxPoint x="68.57999999999998" y="30.00454258675086" as="targetPoint" />
          </mxGeometry>
        </mxCell>
        <mxCell id="ze9bJApV2294Vo6RGE4Z-417" value="" style="endArrow=none;html=1;rounded=0;entryX=0;entryY=0;entryDx=0;entryDy=0;exitX=1;exitY=1;exitDx=0;exitDy=0;strokeColor=#4D4D4D;strokeWidth=2;" edge="1" parent="ze9bJApV2294Vo6RGE4Z-452" source="ze9bJApV2294Vo6RGE4Z-413" target="ze9bJApV2294Vo6RGE4Z-412">
          <mxGeometry width="50" height="50" relative="1" as="geometry">
            <mxPoint x="-1.420000000000016" y="80.00454258675086" as="sourcePoint" />
            <mxPoint x="48.579999999999984" y="30.00454258675086" as="targetPoint" />
          </mxGeometry>
        </mxCell>
        <mxCell id="ze9bJApV2294Vo6RGE4Z-418" value="" style="ellipse;whiteSpace=wrap;html=1;fillColor=none;opacity=80;container=0;strokeColor=#4D4D4D;strokeWidth=2;" vertex="1" parent="ze9bJApV2294Vo6RGE4Z-452">
          <mxGeometry x="102.86999999999998" y="60" width="4.289976133651549" height="4.376025236593056" as="geometry" />
        </mxCell>
        <mxCell id="ze9bJApV2294Vo6RGE4Z-419" value="" style="endArrow=none;html=1;rounded=0;entryX=0;entryY=0.5;entryDx=0;entryDy=0;exitX=1;exitY=0.5;exitDx=0;exitDy=0;strokeColor=#4D4D4D;strokeWidth=2;" edge="1" parent="ze9bJApV2294Vo6RGE4Z-452" source="ze9bJApV2294Vo6RGE4Z-411" target="ze9bJApV2294Vo6RGE4Z-414">
          <mxGeometry width="50" height="50" relative="1" as="geometry">
            <mxPoint x="18.579999999999984" y="80.00454258675086" as="sourcePoint" />
            <mxPoint x="68.57999999999998" y="30.00454258675086" as="targetPoint" />
          </mxGeometry>
        </mxCell>
        <mxCell id="ze9bJApV2294Vo6RGE4Z-420" value="" style="endArrow=none;html=1;rounded=0;entryX=1;entryY=1;entryDx=0;entryDy=0;exitX=0;exitY=0;exitDx=0;exitDy=0;strokeColor=#4D4D4D;strokeWidth=2;" edge="1" parent="ze9bJApV2294Vo6RGE4Z-452" source="ze9bJApV2294Vo6RGE4Z-418" target="ze9bJApV2294Vo6RGE4Z-414">
          <mxGeometry width="50" height="50" relative="1" as="geometry">
            <mxPoint x="58.579999999999984" y="100.00454258675086" as="sourcePoint" />
            <mxPoint x="108.57999999999998" y="50.00454258675086" as="targetPoint" />
          </mxGeometry>
        </mxCell>
        <mxCell id="ze9bJApV2294Vo6RGE4Z-421" value="" style="ellipse;whiteSpace=wrap;html=1;fillColor=none;opacity=80;container=0;strokeColor=#4D4D4D;strokeWidth=2;" vertex="1" parent="ze9bJApV2294Vo6RGE4Z-452">
          <mxGeometry x="58.579999999999984" y="80" width="4.289976133651549" height="4.376025236593056" as="geometry" />
        </mxCell>
        <mxCell id="ze9bJApV2294Vo6RGE4Z-422" value="" style="endArrow=none;html=1;rounded=0;entryX=0.5;entryY=1;entryDx=0;entryDy=0;exitX=0.5;exitY=0;exitDx=0;exitDy=0;strokeColor=#4D4D4D;strokeWidth=2;" edge="1" parent="ze9bJApV2294Vo6RGE4Z-452" source="ze9bJApV2294Vo6RGE4Z-421" target="ze9bJApV2294Vo6RGE4Z-411">
          <mxGeometry width="50" height="50" relative="1" as="geometry">
            <mxPoint x="-21.420000000000016" y="70.00454258675086" as="sourcePoint" />
            <mxPoint x="28.579999999999984" y="20.00454258675086" as="targetPoint" />
          </mxGeometry>
        </mxCell>
        <mxCell id="ze9bJApV2294Vo6RGE4Z-423" value="" style="ellipse;whiteSpace=wrap;html=1;fillColor=none;opacity=80;container=0;strokeColor=#4D4D4D;strokeWidth=2;" vertex="1" parent="ze9bJApV2294Vo6RGE4Z-452">
          <mxGeometry x="32.870000000000005" y="104.38" width="4.289976133651549" height="4.376025236593056" as="geometry" />
        </mxCell>
        <mxCell id="ze9bJApV2294Vo6RGE4Z-424" value="" style="ellipse;whiteSpace=wrap;html=1;fillColor=none;opacity=80;container=0;strokeColor=#4D4D4D;strokeWidth=2;" vertex="1" parent="ze9bJApV2294Vo6RGE4Z-452">
          <mxGeometry x="84.28999999999999" y="108.75999999999999" width="4.289976133651549" height="4.376025236593056" as="geometry" />
        </mxCell>
        <mxCell id="ze9bJApV2294Vo6RGE4Z-425" value="" style="ellipse;whiteSpace=wrap;html=1;fillColor=none;opacity=80;container=0;strokeColor=#4D4D4D;strokeWidth=2;" vertex="1" parent="ze9bJApV2294Vo6RGE4Z-452">
          <mxGeometry x="24.29000000000002" y="140" width="4.289976133651549" height="4.376025236593056" as="geometry" />
        </mxCell>
        <mxCell id="ze9bJApV2294Vo6RGE4Z-426" value="" style="ellipse;whiteSpace=wrap;html=1;fillColor=none;opacity=80;container=0;strokeColor=#4D4D4D;strokeWidth=2;" vertex="1" parent="ze9bJApV2294Vo6RGE4Z-452">
          <mxGeometry x="102.87" y="160" width="4.289976133651549" height="4.376025236593056" as="geometry" />
        </mxCell>
        <mxCell id="ze9bJApV2294Vo6RGE4Z-427" value="" style="endArrow=none;html=1;rounded=0;entryX=0;entryY=0.5;entryDx=0;entryDy=0;exitX=1;exitY=0;exitDx=0;exitDy=0;strokeColor=#4D4D4D;strokeWidth=2;" edge="1" parent="ze9bJApV2294Vo6RGE4Z-452" source="ze9bJApV2294Vo6RGE4Z-423" target="ze9bJApV2294Vo6RGE4Z-421">
          <mxGeometry width="50" height="50" relative="1" as="geometry">
            <mxPoint x="-21.420000000000016" y="130.00454258675086" as="sourcePoint" />
            <mxPoint x="28.579999999999984" y="80.00454258675086" as="targetPoint" />
          </mxGeometry>
        </mxCell>
        <mxCell id="ze9bJApV2294Vo6RGE4Z-428" value="" style="endArrow=none;html=1;rounded=0;entryX=1;entryY=0.5;entryDx=0;entryDy=0;exitX=0;exitY=0;exitDx=0;exitDy=0;strokeColor=#4D4D4D;strokeWidth=2;" edge="1" parent="ze9bJApV2294Vo6RGE4Z-452" source="ze9bJApV2294Vo6RGE4Z-424" target="ze9bJApV2294Vo6RGE4Z-421">
          <mxGeometry width="50" height="50" relative="1" as="geometry">
            <mxPoint x="8.579999999999984" y="130.00454258675086" as="sourcePoint" />
            <mxPoint x="58.579999999999984" y="80.00454258675086" as="targetPoint" />
          </mxGeometry>
        </mxCell>
        <mxCell id="ze9bJApV2294Vo6RGE4Z-429" value="" style="endArrow=none;html=1;rounded=0;entryX=1;entryY=1;entryDx=0;entryDy=0;exitX=0;exitY=0;exitDx=0;exitDy=0;strokeColor=#4D4D4D;strokeWidth=2;" edge="1" parent="ze9bJApV2294Vo6RGE4Z-452" source="ze9bJApV2294Vo6RGE4Z-426" target="ze9bJApV2294Vo6RGE4Z-424">
          <mxGeometry width="50" height="50" relative="1" as="geometry">
            <mxPoint x="-21.420000000000016" y="130.00454258675086" as="sourcePoint" />
            <mxPoint x="28.579999999999984" y="80.00454258675086" as="targetPoint" />
          </mxGeometry>
        </mxCell>
        <mxCell id="ze9bJApV2294Vo6RGE4Z-430" value="" style="endArrow=none;html=1;rounded=0;entryX=0;entryY=1;entryDx=0;entryDy=0;exitX=1;exitY=0;exitDx=0;exitDy=0;strokeColor=#4D4D4D;strokeWidth=2;" edge="1" parent="ze9bJApV2294Vo6RGE4Z-452" source="ze9bJApV2294Vo6RGE4Z-425" target="ze9bJApV2294Vo6RGE4Z-423">
          <mxGeometry width="50" height="50" relative="1" as="geometry">
            <mxPoint x="-11.420000000000016" y="140.00454258675086" as="sourcePoint" />
            <mxPoint x="38.579999999999984" y="90.00454258675086" as="targetPoint" />
          </mxGeometry>
        </mxCell>
        <mxCell id="ze9bJApV2294Vo6RGE4Z-431" value="" style="ellipse;whiteSpace=wrap;html=1;fillColor=none;opacity=80;container=0;strokeColor=#000000;strokeWidth=2;" vertex="1" parent="ze9bJApV2294Vo6RGE4Z-452">
          <mxGeometry x="68.57999999999998" y="30" width="4.289976133651549" height="4.376025236593056" as="geometry" />
        </mxCell>
        <mxCell id="ze9bJApV2294Vo6RGE4Z-432" value="" style="ellipse;whiteSpace=wrap;html=1;fillColor=none;opacity=80;container=0;strokeColor=#000000;strokeWidth=2;" vertex="1" parent="ze9bJApV2294Vo6RGE4Z-452">
          <mxGeometry x="68.57999999999998" y="50" width="4.289976133651549" height="4.376025236593056" as="geometry" />
        </mxCell>
        <mxCell id="ze9bJApV2294Vo6RGE4Z-433" value="" style="ellipse;whiteSpace=wrap;html=1;fillColor=none;opacity=80;container=0;strokeColor=#000000;strokeWidth=2;" vertex="1" parent="ze9bJApV2294Vo6RGE4Z-452">
          <mxGeometry x="47.15999999999997" y="44.379999999999995" width="4.289976133651549" height="4.376025236593056" as="geometry" />
        </mxCell>
        <mxCell id="ze9bJApV2294Vo6RGE4Z-434" value="" style="ellipse;whiteSpace=wrap;html=1;fillColor=none;opacity=80;container=0;strokeColor=#000000;strokeWidth=2;" vertex="1" parent="ze9bJApV2294Vo6RGE4Z-452">
          <mxGeometry x="30" y="30" width="4.289976133651549" height="4.376025236593056" as="geometry" />
        </mxCell>
        <mxCell id="ze9bJApV2294Vo6RGE4Z-435" value="" style="ellipse;whiteSpace=wrap;html=1;fillColor=none;opacity=80;container=0;strokeColor=#000000;strokeWidth=2;" vertex="1" parent="ze9bJApV2294Vo6RGE4Z-452">
          <mxGeometry x="98.57999999999998" y="50" width="4.289976133651549" height="4.376025236593056" as="geometry" />
        </mxCell>
        <mxCell id="ze9bJApV2294Vo6RGE4Z-436" value="" style="endArrow=none;html=1;rounded=0;entryX=0.5;entryY=1;entryDx=0;entryDy=0;exitX=0.5;exitY=0;exitDx=0;exitDy=0;strokeColor=#000000;strokeWidth=2;" edge="1" parent="ze9bJApV2294Vo6RGE4Z-452" source="ze9bJApV2294Vo6RGE4Z-432" target="ze9bJApV2294Vo6RGE4Z-431">
          <mxGeometry width="50" height="50" relative="1" as="geometry">
            <mxPoint x="-1.420000000000016" y="90.00454258675086" as="sourcePoint" />
            <mxPoint x="28.579999999999984" y="50.00454258675086" as="targetPoint" />
          </mxGeometry>
        </mxCell>
        <mxCell id="ze9bJApV2294Vo6RGE4Z-437" value="" style="endArrow=none;html=1;rounded=0;entryX=0;entryY=0.5;entryDx=0;entryDy=0;exitX=1;exitY=0.5;exitDx=0;exitDy=0;strokeColor=#000000;strokeWidth=2;" edge="1" parent="ze9bJApV2294Vo6RGE4Z-452" source="ze9bJApV2294Vo6RGE4Z-433" target="ze9bJApV2294Vo6RGE4Z-432">
          <mxGeometry width="50" height="50" relative="1" as="geometry">
            <mxPoint x="28.579999999999984" y="90.00454258675086" as="sourcePoint" />
            <mxPoint x="78.57999999999998" y="40.00454258675086" as="targetPoint" />
          </mxGeometry>
        </mxCell>
        <mxCell id="ze9bJApV2294Vo6RGE4Z-438" value="" style="endArrow=none;html=1;rounded=0;entryX=0;entryY=0;entryDx=0;entryDy=0;exitX=1;exitY=1;exitDx=0;exitDy=0;strokeColor=#000000;strokeWidth=2;" edge="1" parent="ze9bJApV2294Vo6RGE4Z-452" source="ze9bJApV2294Vo6RGE4Z-434" target="ze9bJApV2294Vo6RGE4Z-433">
          <mxGeometry width="50" height="50" relative="1" as="geometry">
            <mxPoint x="8.579999999999984" y="90.00454258675086" as="sourcePoint" />
            <mxPoint x="58.579999999999984" y="40.00454258675086" as="targetPoint" />
          </mxGeometry>
        </mxCell>
        <mxCell id="ze9bJApV2294Vo6RGE4Z-439" value="" style="ellipse;whiteSpace=wrap;html=1;fillColor=none;opacity=80;container=0;strokeColor=#000000;strokeWidth=2;" vertex="1" parent="ze9bJApV2294Vo6RGE4Z-452">
          <mxGeometry x="112.86999999999998" y="70" width="4.289976133651549" height="4.376025236593056" as="geometry" />
        </mxCell>
        <mxCell id="ze9bJApV2294Vo6RGE4Z-440" value="" style="endArrow=none;html=1;rounded=0;entryX=0;entryY=0.5;entryDx=0;entryDy=0;exitX=1;exitY=0.5;exitDx=0;exitDy=0;strokeColor=#000000;strokeWidth=2;" edge="1" parent="ze9bJApV2294Vo6RGE4Z-452" source="ze9bJApV2294Vo6RGE4Z-432" target="ze9bJApV2294Vo6RGE4Z-435">
          <mxGeometry width="50" height="50" relative="1" as="geometry">
            <mxPoint x="28.579999999999984" y="90.00454258675086" as="sourcePoint" />
            <mxPoint x="78.57999999999998" y="40.00454258675086" as="targetPoint" />
          </mxGeometry>
        </mxCell>
        <mxCell id="ze9bJApV2294Vo6RGE4Z-441" value="" style="endArrow=none;html=1;rounded=0;entryX=1;entryY=1;entryDx=0;entryDy=0;exitX=0;exitY=0;exitDx=0;exitDy=0;strokeColor=#000000;strokeWidth=2;" edge="1" parent="ze9bJApV2294Vo6RGE4Z-452" source="ze9bJApV2294Vo6RGE4Z-439" target="ze9bJApV2294Vo6RGE4Z-435">
          <mxGeometry width="50" height="50" relative="1" as="geometry">
            <mxPoint x="68.57999999999998" y="110.00454258675086" as="sourcePoint" />
            <mxPoint x="118.57999999999998" y="60.00454258675086" as="targetPoint" />
          </mxGeometry>
        </mxCell>
        <mxCell id="ze9bJApV2294Vo6RGE4Z-442" value="" style="ellipse;whiteSpace=wrap;html=1;fillColor=none;opacity=80;container=0;strokeColor=#000000;strokeWidth=2;" vertex="1" parent="ze9bJApV2294Vo6RGE4Z-452">
          <mxGeometry x="68.57999999999998" y="90" width="4.289976133651549" height="4.376025236593056" as="geometry" />
        </mxCell>
        <mxCell id="ze9bJApV2294Vo6RGE4Z-443" value="" style="endArrow=none;html=1;rounded=0;entryX=0.5;entryY=1;entryDx=0;entryDy=0;exitX=0.5;exitY=0;exitDx=0;exitDy=0;strokeColor=#000000;strokeWidth=2;" edge="1" parent="ze9bJApV2294Vo6RGE4Z-452" source="ze9bJApV2294Vo6RGE4Z-442" target="ze9bJApV2294Vo6RGE4Z-432">
          <mxGeometry width="50" height="50" relative="1" as="geometry">
            <mxPoint x="-11.420000000000016" y="80.00454258675086" as="sourcePoint" />
            <mxPoint x="38.579999999999984" y="30.00454258675086" as="targetPoint" />
          </mxGeometry>
        </mxCell>
        <mxCell id="ze9bJApV2294Vo6RGE4Z-444" value="" style="ellipse;whiteSpace=wrap;html=1;fillColor=none;opacity=80;container=0;strokeColor=#000000;strokeWidth=2;" vertex="1" parent="ze9bJApV2294Vo6RGE4Z-452">
          <mxGeometry x="42.870000000000005" y="114.38" width="4.289976133651549" height="4.376025236593056" as="geometry" />
        </mxCell>
        <mxCell id="ze9bJApV2294Vo6RGE4Z-445" value="" style="ellipse;whiteSpace=wrap;html=1;fillColor=none;opacity=80;container=0;strokeColor=#000000;strokeWidth=2;" vertex="1" parent="ze9bJApV2294Vo6RGE4Z-452">
          <mxGeometry x="94.28999999999999" y="118.75999999999999" width="4.289976133651549" height="4.376025236593056" as="geometry" />
        </mxCell>
        <mxCell id="ze9bJApV2294Vo6RGE4Z-446" value="" style="ellipse;whiteSpace=wrap;html=1;fillColor=none;opacity=80;container=0;strokeColor=#000000;strokeWidth=2;" vertex="1" parent="ze9bJApV2294Vo6RGE4Z-452">
          <mxGeometry x="34.29000000000002" y="150" width="4.289976133651549" height="4.376025236593056" as="geometry" />
        </mxCell>
        <mxCell id="ze9bJApV2294Vo6RGE4Z-447" value="" style="ellipse;whiteSpace=wrap;html=1;fillColor=none;opacity=80;container=0;strokeColor=#000000;strokeWidth=2;" vertex="1" parent="ze9bJApV2294Vo6RGE4Z-452">
          <mxGeometry x="112.87" y="170" width="4.289976133651549" height="4.376025236593056" as="geometry" />
        </mxCell>
        <mxCell id="ze9bJApV2294Vo6RGE4Z-448" value="" style="endArrow=none;html=1;rounded=0;entryX=0;entryY=0.5;entryDx=0;entryDy=0;exitX=1;exitY=0;exitDx=0;exitDy=0;strokeColor=#000000;strokeWidth=2;" edge="1" parent="ze9bJApV2294Vo6RGE4Z-452" source="ze9bJApV2294Vo6RGE4Z-444" target="ze9bJApV2294Vo6RGE4Z-442">
          <mxGeometry width="50" height="50" relative="1" as="geometry">
            <mxPoint x="-11.420000000000016" y="140.00454258675086" as="sourcePoint" />
            <mxPoint x="38.579999999999984" y="90.00454258675086" as="targetPoint" />
          </mxGeometry>
        </mxCell>
        <mxCell id="ze9bJApV2294Vo6RGE4Z-449" value="" style="endArrow=none;html=1;rounded=0;entryX=1;entryY=0.5;entryDx=0;entryDy=0;exitX=0;exitY=0;exitDx=0;exitDy=0;strokeColor=#000000;strokeWidth=2;" edge="1" parent="ze9bJApV2294Vo6RGE4Z-452" source="ze9bJApV2294Vo6RGE4Z-445" target="ze9bJApV2294Vo6RGE4Z-442">
          <mxGeometry width="50" height="50" relative="1" as="geometry">
            <mxPoint x="18.579999999999984" y="140.00454258675086" as="sourcePoint" />
            <mxPoint x="68.57999999999998" y="90.00454258675086" as="targetPoint" />
          </mxGeometry>
        </mxCell>
        <mxCell id="ze9bJApV2294Vo6RGE4Z-450" value="" style="endArrow=none;html=1;rounded=0;entryX=1;entryY=1;entryDx=0;entryDy=0;exitX=0;exitY=0;exitDx=0;exitDy=0;strokeColor=#000000;strokeWidth=2;" edge="1" parent="ze9bJApV2294Vo6RGE4Z-452" source="ze9bJApV2294Vo6RGE4Z-447" target="ze9bJApV2294Vo6RGE4Z-445">
          <mxGeometry width="50" height="50" relative="1" as="geometry">
            <mxPoint x="-11.420000000000016" y="140.00454258675086" as="sourcePoint" />
            <mxPoint x="38.579999999999984" y="90.00454258675086" as="targetPoint" />
          </mxGeometry>
        </mxCell>
        <mxCell id="ze9bJApV2294Vo6RGE4Z-451" value="" style="endArrow=none;html=1;rounded=0;entryX=0;entryY=1;entryDx=0;entryDy=0;exitX=1;exitY=0;exitDx=0;exitDy=0;strokeColor=#000000;strokeWidth=2;" edge="1" parent="ze9bJApV2294Vo6RGE4Z-452" source="ze9bJApV2294Vo6RGE4Z-446" target="ze9bJApV2294Vo6RGE4Z-444">
          <mxGeometry width="50" height="50" relative="1" as="geometry">
            <mxPoint x="-1.420000000000016" y="150.00454258675086" as="sourcePoint" />
            <mxPoint x="48.579999999999984" y="100.00454258675086" as="targetPoint" />
          </mxGeometry>
        </mxCell>
      </root>
    </mxGraphModel>
  </diagram>
</mxfile>
